<svg xmlns="http://www.w3.org/2000/svg" width="640" height="220" viewBox="0 0 640 220">
  <defs>
    <linearGradient id="logo-cyber-discovery-a" x1="35.169%" x2="15.865%" y1="8.041%" y2="91.959%">
      <stop offset="0%" stop-color="#F0F3F5"/>
      <stop offset="100%" stop-color="#BBC7D1"/>
    </linearGradient>
    <linearGradient id="logo-cyber-discovery-b" x1="37.176%" x2="23.153%" y1="0%" y2="70.547%">
      <stop offset="0%" stop-color="#F0F3F5"/>
      <stop offset="100%" stop-color="#BBC7D1"/>
    </linearGradient>
    <linearGradient id="logo-cyber-discovery-c" x1="40.484%" x2="22.561%" y1="0%" y2="100%">
      <stop offset="0%" stop-color="#F0F3F5"/>
      <stop offset="100%" stop-color="#BBC7D1"/>
    </linearGradient>
    <linearGradient id="logo-cyber-discovery-d" x1="30.056%" x2="12.565%" y1="15.653%" y2="84.347%">
      <stop offset="0%" stop-color="#F0F3F5"/>
      <stop offset="100%" stop-color="#BBC7D1"/>
    </linearGradient>
    <linearGradient id="logo-cyber-discovery-e" x1="39.665%" x2="19.911%" y1="0%" y2="100%">
      <stop offset="0%" stop-color="#F0F3F5"/>
      <stop offset="100%" stop-color="#BBC7D1"/>
    </linearGradient>
    <linearGradient id="logo-cyber-discovery-f" x1="76.567%" x2="62.494%" y1="29.434%" y2="100%">
      <stop offset="0%" stop-color="#F0F3F5"/>
      <stop offset="100%" stop-color="#BBC7D1"/>
    </linearGradient>
    <linearGradient id="logo-cyber-discovery-g" x1="59.104%" x2="54.281%" y1="29.434%" y2="100%">
      <stop offset="0%" stop-color="#F0F3F5"/>
      <stop offset="100%" stop-color="#BBC7D1"/>
    </linearGradient>
    <linearGradient id="logo-cyber-discovery-h" x1="80.343%" x2="64.27%" y1="36.719%" y2="82.289%">
      <stop offset="0%" stop-color="#F0F3F5"/>
      <stop offset="100%" stop-color="#BBC7D1"/>
    </linearGradient>
    <linearGradient id="logo-cyber-discovery-i" x1="80.343%" x2="64.27%" y1="32.802%" y2="91.811%">
      <stop offset="0%" stop-color="#F0F3F5"/>
      <stop offset="100%" stop-color="#BBC7D1"/>
    </linearGradient>
    <linearGradient id="logo-cyber-discovery-j" x1="80.343%" x2="64.27%" y1="36.329%" y2="83.237%">
      <stop offset="0%" stop-color="#F0F3F5"/>
      <stop offset="100%" stop-color="#BBC7D1"/>
    </linearGradient>
    <linearGradient id="logo-cyber-discovery-k" x1="80.343%" x2="64.27%" y1="34.743%" y2="87.093%">
      <stop offset="0%" stop-color="#F0F3F5"/>
      <stop offset="100%" stop-color="#BBC7D1"/>
    </linearGradient>
    <linearGradient id="logo-cyber-discovery-l" x1="80.343%" x2="64.27%" y1="35.921%" y2="84.226%">
      <stop offset="0%" stop-color="#F0F3F5"/>
      <stop offset="100%" stop-color="#BBC7D1"/>
    </linearGradient>
    <linearGradient id="logo-cyber-discovery-m" x1="77.882%" x2="63.113%" y1="29.434%" y2="100%">
      <stop offset="0%" stop-color="#F0F3F5"/>
      <stop offset="100%" stop-color="#BBC7D1"/>
    </linearGradient>
    <linearGradient id="logo-cyber-discovery-n" x1="76.329%" x2="62.382%" y1="29.434%" y2="100%">
      <stop offset="0%" stop-color="#F0F3F5"/>
      <stop offset="100%" stop-color="#BBC7D1"/>
    </linearGradient>
  </defs>
  <g fill="none">
    <g transform="translate(146)">
      <path fill="url(#logo-cyber-discovery-a)" d="M56.8901993,92.1508761 L10.4085284,92.1508761 C2.98170498,92.1508761 0.0365853372,89.7239322 0.0365853372,84.4868429 C0.0365853372,83.0817702 0.292682698,81.4212296 0.676828739,79.5052213 L8.99999295,40.1631839 C10.7926745,31.4772794 14.6341348,27.5175289 24.1097372,27.5175289 L70.5914081,27.5175289 L66.621899,46.2944104 L32.4329014,46.2944104 C30.1280251,46.2944104 29.1036358,47.1885477 28.591441,49.4877576 L24.3658346,69.4142441 C24.2377859,69.7974458 24.2377859,70.1806474 24.2377859,70.5638491 C24.2377859,71.9689219 24.8780293,72.4798575 26.7987595,72.4798575 L60.9877571,72.4798575 L56.8901993,92.1508761 Z"/>
      <path fill="url(#logo-cyber-discovery-b)" d="M116.304786,119.230461 L63.036536,119.230461 L67.0060451,100.709047 L107.981623,100.709047 C110.286499,100.709047 111.310888,99.8149094 111.823083,97.5156994 L112.975521,92.1508761 L78.9145724,92.1508761 C71.4877489,92.1508761 68.5426292,89.7239322 68.5426292,84.4868429 C68.5426292,83.0817702 68.7987266,81.4212296 69.1828726,79.5052213 L80.1950591,27.5175289 L101.835286,27.5175289 L92.3596838,71.841188 C92.2316351,72.3521235 92.2316351,72.7353253 92.2316351,73.1185269 C92.2316351,74.5235997 92.9999271,75.0345352 94.7926086,75.0345352 L116.560885,75.0345352 L126.67673,27.5175289 L148.316957,27.5175289 L131.414532,106.584805 C129.493801,115.27071 125.652341,119.230461 116.304786,119.230461 Z"/>
      <path fill="url(#logo-cyber-discovery-c)" d="M201.713257,92.1508761 L145.884032,92.1508761 L165.347431,0.437944758 L186.987659,0.437944758 L171.493768,72.990793 L193.390092,72.990793 C195.694969,72.990793 196.719358,72.0966558 197.231553,69.7974458 L201.585208,49.104556 C201.713257,48.5936205 201.713257,48.2104187 201.713257,47.8272171 C201.713257,46.4221443 200.944964,45.9112088 199.152283,45.9112088 L183.658393,45.9112088 L187.627901,27.5175289 L215.414465,27.5175289 C222.201045,27.5175289 225.65836,30.0722067 225.65836,35.8202317 C225.65836,37.0975705 225.530311,38.5026433 225.146165,40.1631839 L216.823001,79.5052213 C214.902271,88.1911256 210.932762,92.1508761 201.713257,92.1508761 Z"/>
      <path fill="url(#logo-cyber-discovery-d)" d="M290.835139,92.1508761 L294.420501,74.9068013 L252.80468,74.9068013 C251.011999,74.9068013 250.371755,74.3958657 250.371755,73.1185269 C250.371755,72.7353253 250.499803,72.2243897 250.627853,71.5857202 L255.621751,47.8272171 C256.133945,45.5280071 257.030287,44.6338699 259.335162,44.6338699 L280.463195,44.6338699 C282.127828,44.6338699 282.768071,45.1448055 282.768071,46.4221443 C282.768071,46.8053461 282.768071,47.1885477 282.640022,47.6994832 L281.359535,54.0861776 L260.743698,54.0861776 L258.310774,65.3267598 L299.030254,65.3267598 L304.536347,39.6522483 C304.920493,37.8639738 305.048541,36.3311672 305.048541,35.0538283 C305.048541,29.9444728 302.487568,27.5175289 295.829037,27.5175289 L251.268096,27.5175289 C241.664445,27.5175289 237.822984,31.4772794 236.030303,40.1631839 L227.707138,79.5052213 C227.322993,81.4212296 227.066896,83.0817702 227.066896,84.4868429 C227.066896,89.7239322 230.012015,92.1508761 237.566896,92.1508761 L290.835139,92.1508761 Z"/>
      <path fill="url(#logo-cyber-discovery-e)" d="M326.816818,92.1508761 L335.908274,49.104556 C336.420468,46.8053461 337.572906,45.9112088 339.877782,45.9112088 L362.926545,45.9112088 L366.896055,27.5175289 L350.889969,27.5175289 C345.127778,27.5175289 341.286318,29.9444728 337.957052,34.7983606 L339.493636,27.5175289 L318.74975,27.5175289 L305.048541,92.1508761 L326.816818,92.1508761 Z"/>
    </g>
    <g transform="translate(0 100)">
      <path fill="url(#logo-cyber-discovery-f)" d="M66.3547602,92.1508761 L10.4269148,92.1508761 C2.98697208,92.1508761 0.0366499642,89.7239322 0.0366499642,84.4868429 C0.0366499642,83.0817702 0.293199714,81.4212296 0.678024338,79.5052213 L9.0158912,40.1631839 C10.8117394,31.3495456 15.8144595,27.5175289 24.1523264,27.5175289 L51.9879742,27.5175289 L48.0114531,45.9112088 L32.4901933,45.9112088 C30.3095204,45.9112088 29.2833214,46.6776121 28.7702219,49.104556 L24.4088762,69.7974458 C24.2806013,70.3083814 24.1523264,70.8193169 24.1523264,71.2025185 C24.1523264,72.4798575 24.9219756,72.990793 26.7178239,72.990793 L48.6528275,72.990793 L64.1740873,0.437944758 L85.8525411,0.437944758 L66.3547602,92.1508761 Z"/>
      <polygon fill="url(#logo-cyber-discovery-g)" points="101.118 92.151 79.439 92.151 93.164 27.518 114.843 27.518"/>
      <polygon fill="#F0F3F5" points="116.638 19.854 120.744 .438 98.937 .438 94.832 19.854"/>
      <path fill="url(#logo-cyber-discovery-h)" d="M169.102935,92.1508761 L113.944739,92.1508761 L117.536435,74.7790674 L159.610594,74.7790674 C161.919542,74.7790674 162.689191,74.1403979 163.202291,71.9689219 L164.100214,67.8814375 C164.100214,67.4982358 164.228489,67.242768 164.228489,66.9873002 C164.228489,65.9654291 163.587115,65.4544936 162.047817,65.4544936 L129.722548,65.4544936 C123.693629,65.4544936 121.256407,63.0275497 121.256407,58.9400654 C121.256407,58.0459281 121.256407,57.1517909 121.512957,56.2576537 L125.232927,38.7581111 C126.900501,31.0940778 130.620473,27.5175289 139.856263,27.5175289 L194.373086,27.5175289 L190.781388,44.2506682 L148.70723,44.2506682 C146.398282,44.2506682 145.372083,45.1448055 144.987259,47.3162816 L144.217609,51.0205643 C144.089334,51.4037659 144.089334,51.6592337 144.089334,51.9147015 C144.089334,53.0643065 144.730708,53.702976 146.270007,53.702976 L179.236649,53.702976 C185.137294,53.702976 187.702792,56.1299198 187.702792,60.2174042 C187.702792,60.9838075 187.702792,61.8779448 187.446242,62.7720819 L183.597995,80.9102941 C181.930422,88.5743273 178.082176,92.1508761 169.102935,92.1508761 Z"/>
      <path fill="url(#logo-cyber-discovery-i)" d="M252.225053,92.1508761 L205.661274,92.1508761 C198.221331,92.1508761 195.271009,89.7239322 195.271009,84.4868429 C195.271009,83.0817702 195.527559,81.4212296 195.912384,79.5052213 L204.25025,40.1631839 C206.046098,31.4772794 209.894345,27.5175289 219.386685,27.5175289 L265.950466,27.5175289 L261.973944,46.2944104 L227.724553,46.2944104 C225.415604,46.2944104 224.389406,47.1885477 223.876306,49.4877576 L219.643236,69.4142441 C219.51496,69.7974458 219.51496,70.1806474 219.51496,70.5638491 C219.51496,71.9689219 220.156335,72.4798575 222.080458,72.4798575 L256.32985,72.4798575 L252.225053,92.1508761 Z"/>
      <path fill="url(#logo-cyber-discovery-j)" d="M333.807874,27.5175289 C341.247817,27.5175289 344.069864,29.9444728 344.069864,35.3092961 C344.069864,36.7143689 343.941589,38.3749094 343.556764,40.1631839 L335.218898,79.5052213 C333.294775,88.1911256 329.446528,92.1508761 320.082463,92.1508761 L275.186257,92.1508761 C267.746314,92.1508761 264.795992,89.7239322 264.795992,84.4868429 C264.795992,83.0817702 265.052541,81.4212296 265.437366,79.5052213 L273.775233,40.1631839 C275.571081,31.4772794 279.419328,27.5175289 288.911668,27.5175289 L333.807874,27.5175289 Z M317.38869,45.9112088 L297.121259,45.9112088 C294.940587,45.9112088 294.042662,46.8053461 293.529563,49.104556 L289.039943,69.9251797 C288.911668,70.3083814 288.911668,70.8193169 288.911668,71.0747847 C288.911668,72.4798575 289.553042,72.990793 291.348891,72.990793 L311.616321,72.990793 C314.053544,72.990793 314.951467,72.0966558 315.464567,69.9251797 L319.954188,49.104556 C320.082463,48.5936205 320.082463,48.2104187 320.082463,47.8272171 C320.082463,46.4221443 319.312813,45.9112088 317.38869,45.9112088 Z"/>
      <polygon fill="url(#logo-cyber-discovery-k)" points="389.223 92.151 363.312 92.151 353.305 27.518 376.524 27.518 381.911 69.798 406.155 27.518 428.347 27.518"/>
      <path fill="url(#logo-cyber-discovery-l)" d="M486.968075,92.1508761 L433.605727,92.1508761 C426.037509,92.1508761 423.087187,89.7239322 423.087187,84.4868429 C423.087187,83.0817702 423.343737,81.4212296 423.728561,79.5052213 L432.066428,40.1631839 C433.862276,31.4772794 437.710523,27.5175289 447.331138,27.5175289 L491.970795,27.5175289 C498.641088,27.5175289 501.206585,29.9444728 501.206585,35.0538283 C501.206585,36.3311672 501.078311,37.8639738 500.693486,39.6522483 L495.177666,65.3267598 L454.386257,65.3267598 L456.823478,54.0861776 L477.475734,54.0861776 L478.758482,47.6994832 C478.886757,47.1885477 478.886757,46.8053461 478.886757,46.4221443 C478.886757,45.1448055 478.245383,44.6338699 476.57781,44.6338699 L455.412455,44.6338699 C453.103508,44.6338699 452.205583,45.5280071 451.692484,47.8272171 L446.689764,71.5857202 C446.561488,72.2243897 446.433214,72.7353253 446.433214,73.1185269 C446.433214,74.3958657 447.074589,74.9068013 448.870437,74.9068013 L490.559771,74.9068013 L486.968075,92.1508761 Z"/>
      <path fill="url(#logo-cyber-discovery-m)" d="M523.013315,92.1508761 L501.206585,92.1508761 L514.931997,27.5175289 L535.712527,27.5175289 L534.173228,34.7983606 C537.508375,29.9444728 541.356621,27.5175289 547.128991,27.5175289 L563.163351,27.5175289 L559.186829,45.9112088 L536.097351,45.9112088 C533.788404,45.9112088 532.63393,46.8053461 532.120831,49.104556 L523.013315,92.1508761 Z"/>
      <path fill="url(#logo-cyber-discovery-n)" d="M607.546456,119.230461 L554.184109,119.230461 L558.16063,100.709047 L599.20859,100.709047 C601.517537,100.709047 602.543737,99.8149094 603.056836,97.5156994 L604.21131,92.1508761 L570.090193,92.1508761 C562.65025,92.1508761 559.699928,89.7239322 559.699928,84.4868429 C559.699928,83.0817702 559.956478,81.4212296 560.341303,79.5052213 L571.372942,27.5175289 L593.051396,27.5175289 L583.559055,71.841188 C583.43078,72.3521235 583.43078,72.7353253 583.43078,73.1185269 C583.43078,74.5235997 584.20043,75.0345352 585.996278,75.0345352 L607.803006,75.0345352 L617.936721,27.5175289 L639.615176,27.5175289 L622.682891,106.584805 C620.758769,115.27071 616.910523,119.230461 607.546456,119.230461 Z"/>
    </g>
  </g>
</svg>
